<svg xmlns:xlink="http://www.w3.org/1999/xlink" xmlns="http://www.w3.org/2000/svg" width="40" height="40" viewBox="0 0 40 40" fill="none">
<rect x="0.0175781" y="0.753784" width="39.0169" height="39.0169" rx="9.75422" fill="white"/>
<path fill-rule="evenodd" clip-rule="evenodd" d="M10.6208 19.4552C9.98828 18.5257 9.66704 17.376 9.80186 16.1486C10.0598 13.8075 12.0362 11.9316 14.4336 11.7436C16.4343 11.587 18.2153 12.5661 19.1772 14.0923C19.3368 14.3457 19.7144 14.3457 19.8743 14.0923C20.8355 12.5678 22.6142 11.5891 24.6123 11.7432C27.0296 11.9304 29.0174 13.8347 29.2545 16.197C29.3798 17.4426 29.0351 18.6055 28.374 19.5371L28.3502 19.5702L19.9433 28.5953C19.733 28.8644 19.3186 28.8644 19.1083 28.5953L10.7014 19.5702L10.6208 19.4552Z" stroke="#333333" stroke-width="1.21928" stroke-linecap="round" stroke-linejoin="round"/>
</svg>